<mxfile host="app.diagrams.net" modified="2023-06-10T21:03:59.875Z" agent="Mozilla/5.0 (Windows NT 10.0; Win64; x64) AppleWebKit/537.36 (KHTML, like Gecko) Chrome/114.0.0.0 Safari/537.36" etag="ojsGkVcpySB3s5kBI_6j" version="21.3.7" type="device">
  <diagram name="Page-1" id="42789a77-a242-8287-6e28-9cd8cfd52e62">
    <mxGraphModel dx="1434" dy="768" grid="1" gridSize="10" guides="1" tooltips="1" connect="1" arrows="1" fold="1" page="1" pageScale="1" pageWidth="1100" pageHeight="850" background="none" math="0" shadow="0">
      <root>
        <mxCell id="0" />
        <mxCell id="1" parent="0" />
        <mxCell id="CxKdwl5OSGobZY2eFByV-11" style="edgeStyle=orthogonalEdgeStyle;rounded=0;orthogonalLoop=1;jettySize=auto;html=1;entryX=0.5;entryY=0;entryDx=0;entryDy=0;" edge="1" parent="1" source="CxKdwl5OSGobZY2eFByV-2" target="CxKdwl5OSGobZY2eFByV-5">
          <mxGeometry relative="1" as="geometry" />
        </mxCell>
        <mxCell id="CxKdwl5OSGobZY2eFByV-2" value="REPOSITORY" style="rounded=1;whiteSpace=wrap;html=1;" vertex="1" parent="1">
          <mxGeometry x="440" y="310" width="120" height="60" as="geometry" />
        </mxCell>
        <mxCell id="CxKdwl5OSGobZY2eFByV-10" style="edgeStyle=orthogonalEdgeStyle;rounded=0;orthogonalLoop=1;jettySize=auto;html=1;" edge="1" parent="1" source="CxKdwl5OSGobZY2eFByV-3" target="CxKdwl5OSGobZY2eFByV-2">
          <mxGeometry relative="1" as="geometry" />
        </mxCell>
        <mxCell id="CxKdwl5OSGobZY2eFByV-3" value="Data Acces Object(DAO)" style="rounded=1;whiteSpace=wrap;html=1;" vertex="1" parent="1">
          <mxGeometry x="440" y="200" width="120" height="60" as="geometry" />
        </mxCell>
        <mxCell id="CxKdwl5OSGobZY2eFByV-9" style="edgeStyle=orthogonalEdgeStyle;rounded=0;orthogonalLoop=1;jettySize=auto;html=1;entryX=0.5;entryY=0;entryDx=0;entryDy=0;" edge="1" parent="1" source="CxKdwl5OSGobZY2eFByV-4" target="CxKdwl5OSGobZY2eFByV-3">
          <mxGeometry relative="1" as="geometry" />
        </mxCell>
        <mxCell id="CxKdwl5OSGobZY2eFByV-4" value="ModelEntity" style="ellipse;whiteSpace=wrap;html=1;" vertex="1" parent="1">
          <mxGeometry x="440" y="80" width="120" height="80" as="geometry" />
        </mxCell>
        <mxCell id="CxKdwl5OSGobZY2eFByV-13" style="edgeStyle=orthogonalEdgeStyle;rounded=0;orthogonalLoop=1;jettySize=auto;html=1;entryX=0.5;entryY=0;entryDx=0;entryDy=0;" edge="1" parent="1" source="CxKdwl5OSGobZY2eFByV-5" target="CxKdwl5OSGobZY2eFByV-6">
          <mxGeometry relative="1" as="geometry" />
        </mxCell>
        <mxCell id="CxKdwl5OSGobZY2eFByV-5" value="ModelDomain" style="ellipse;whiteSpace=wrap;html=1;" vertex="1" parent="1">
          <mxGeometry x="440" y="420" width="120" height="80" as="geometry" />
        </mxCell>
        <mxCell id="CxKdwl5OSGobZY2eFByV-14" style="edgeStyle=orthogonalEdgeStyle;rounded=0;orthogonalLoop=1;jettySize=auto;html=1;entryX=0.5;entryY=0;entryDx=0;entryDy=0;" edge="1" parent="1" source="CxKdwl5OSGobZY2eFByV-6" target="CxKdwl5OSGobZY2eFByV-7">
          <mxGeometry relative="1" as="geometry" />
        </mxCell>
        <mxCell id="CxKdwl5OSGobZY2eFByV-6" value="UseCase" style="rounded=1;whiteSpace=wrap;html=1;" vertex="1" parent="1">
          <mxGeometry x="440" y="550" width="120" height="60" as="geometry" />
        </mxCell>
        <mxCell id="CxKdwl5OSGobZY2eFByV-15" style="edgeStyle=orthogonalEdgeStyle;rounded=0;orthogonalLoop=1;jettySize=auto;html=1;entryX=0.5;entryY=0;entryDx=0;entryDy=0;" edge="1" parent="1" source="CxKdwl5OSGobZY2eFByV-7" target="CxKdwl5OSGobZY2eFByV-8">
          <mxGeometry relative="1" as="geometry" />
        </mxCell>
        <mxCell id="CxKdwl5OSGobZY2eFByV-7" value="ViewModel" style="rounded=1;whiteSpace=wrap;html=1;" vertex="1" parent="1">
          <mxGeometry x="440" y="660" width="120" height="60" as="geometry" />
        </mxCell>
        <mxCell id="CxKdwl5OSGobZY2eFByV-8" value="Activity" style="rounded=1;whiteSpace=wrap;html=1;" vertex="1" parent="1">
          <mxGeometry x="440" y="770" width="120" height="60" as="geometry" />
        </mxCell>
        <mxCell id="CxKdwl5OSGobZY2eFByV-19" style="edgeStyle=orthogonalEdgeStyle;rounded=0;orthogonalLoop=1;jettySize=auto;html=1;entryX=1;entryY=0.5;entryDx=0;entryDy=0;" edge="1" parent="1" source="CxKdwl5OSGobZY2eFByV-16" target="CxKdwl5OSGobZY2eFByV-17">
          <mxGeometry relative="1" as="geometry" />
        </mxCell>
        <mxCell id="CxKdwl5OSGobZY2eFByV-16" value="ModelRepository" style="ellipse;whiteSpace=wrap;html=1;" vertex="1" parent="1">
          <mxGeometry x="860" y="150" width="120" height="80" as="geometry" />
        </mxCell>
        <mxCell id="CxKdwl5OSGobZY2eFByV-20" style="edgeStyle=orthogonalEdgeStyle;rounded=0;orthogonalLoop=1;jettySize=auto;html=1;entryX=1;entryY=0.5;entryDx=0;entryDy=0;dashed=1;dashPattern=8 8;" edge="1" parent="1" source="CxKdwl5OSGobZY2eFByV-17" target="CxKdwl5OSGobZY2eFByV-2">
          <mxGeometry relative="1" as="geometry" />
        </mxCell>
        <mxCell id="CxKdwl5OSGobZY2eFByV-17" value="RETROFIT" style="rounded=1;whiteSpace=wrap;html=1;" vertex="1" parent="1">
          <mxGeometry x="690" y="240" width="120" height="60" as="geometry" />
        </mxCell>
        <mxCell id="CxKdwl5OSGobZY2eFByV-24" style="edgeStyle=orthogonalEdgeStyle;rounded=0;orthogonalLoop=1;jettySize=auto;html=1;entryX=0;entryY=0.5;entryDx=0;entryDy=0;fontStyle=0" edge="1" parent="1" source="CxKdwl5OSGobZY2eFByV-25" target="CxKdwl5OSGobZY2eFByV-26">
          <mxGeometry relative="1" as="geometry" />
        </mxCell>
        <mxCell id="CxKdwl5OSGobZY2eFByV-25" value="ModelRepository" style="ellipse;whiteSpace=wrap;html=1;direction=east;fontStyle=0" vertex="1" parent="1">
          <mxGeometry x="60" y="150" width="120" height="80" as="geometry" />
        </mxCell>
        <mxCell id="CxKdwl5OSGobZY2eFByV-39" style="edgeStyle=orthogonalEdgeStyle;rounded=0;orthogonalLoop=1;jettySize=auto;html=1;entryX=0;entryY=0.5;entryDx=0;entryDy=0;dashed=1;dashPattern=8 8;" edge="1" parent="1" source="CxKdwl5OSGobZY2eFByV-26" target="CxKdwl5OSGobZY2eFByV-2">
          <mxGeometry relative="1" as="geometry" />
        </mxCell>
        <mxCell id="CxKdwl5OSGobZY2eFByV-26" value="RETROFIT" style="rounded=1;whiteSpace=wrap;html=1;direction=east;fontStyle=0" vertex="1" parent="1">
          <mxGeometry x="220" y="240" width="120" height="60" as="geometry" />
        </mxCell>
      </root>
    </mxGraphModel>
  </diagram>
</mxfile>
